<svg width="33" height="33" viewBox="0 0 33 33" fill="none" xmlns="http://www.w3.org/2000/svg">
<ellipse cx="16.7876" cy="16.8956" rx="16.2133" ry="16.1046" fill="#DCDCDC"/>
<g clip-path="url(#clip0_12847_1511)">
<path d="M17.9517 15.7403C17.5137 15.3054 16.9196 15.061 16.3002 15.061C15.6808 15.061 15.0868 15.3054 14.6487 15.7403L12.9967 17.3808C12.5586 17.8159 12.3125 18.4061 12.3125 19.0214C12.3125 19.6368 12.5586 20.227 12.9967 20.6621C13.4348 21.0973 14.0289 21.3417 14.6485 21.3417C15.268 21.3417 15.8622 21.0973 16.3002 20.6621L17.126 19.8419" stroke="black" stroke-width="1.58333" stroke-linecap="round" stroke-linejoin="round"/>
<path d="M16.3008 17.3807C16.7389 17.8157 17.3329 18.06 17.9523 18.06C18.5717 18.06 19.1657 17.8157 19.6038 17.3807L21.2558 15.7403C21.6939 15.3051 21.94 14.715 21.94 14.0996C21.94 13.4842 21.6939 12.894 21.2558 12.4589C20.8178 12.0238 20.2236 11.7793 19.6041 11.7793C18.9845 11.7793 18.3904 12.0238 17.9523 12.4589L17.1265 13.2791" stroke="black" stroke-width="1.58333" stroke-linecap="round" stroke-linejoin="round"/>
</g>
<defs>
<clipPath id="clip0_12847_1511">
<rect width="12.8356" height="12.7495" fill="white" transform="translate(10.707 10.1855)"/>
</clipPath>
</defs>
</svg>
